<svg width="32" height="32" fill="none" xmlns="http://www.w3.org/2000/svg"><path d="M24.164 7.66A19.963 19.963 0 0019.075 6a.075.075 0 00-.047.007.08.08 0 00-.034.034c-.22.41-.464.946-.634 1.366a18.158 18.158 0 00-5.716 0A13.73 13.73 0 0012 6.041a.081.081 0 00-.034-.034.076.076 0 00-.047-.007 19.826 19.826 0 00-5.09 1.658.065.065 0 00-.032.03c-3.24 5.082-4.13 10.039-3.694 14.934a.093.093 0 00.033.06 20.388 20.388 0 006.242 3.313.075.075 0 00.049 0 .08.08 0 00.039-.031c.481-.689.91-1.415 1.278-2.18a.085.085 0 00-.016-.096.08.08 0 00-.028-.018 13.58 13.58 0 01-1.95-.976.081.081 0 01-.036-.047.086.086 0 01.005-.061.084.084 0 01.023-.031c.132-.104.263-.212.388-.32a.076.076 0 01.08-.012c4.092 1.962 8.521 1.962 12.563 0a.077.077 0 01.083.012c.125.108.257.216.388.32a.084.084 0 01.032.071.086.086 0 01-.038.068c-.624.381-1.277.707-1.952.974a.077.077 0 00-.029.02.083.083 0 00-.022.064c0 .011.004.022.009.033.375.762.805 1.49 1.276 2.179a.08.08 0 00.04.03.075.075 0 00.048.001 20.324 20.324 0 006.251-3.312.083.083 0 00.033-.06c.522-5.66-.873-10.577-3.697-14.934a.053.053 0 00-.031-.031zm-12.81 11.982c-1.232 0-2.246-1.188-2.246-2.644 0-1.458.995-2.645 2.247-2.645 1.26 0 2.265 1.197 2.247 2.645 0 1.456-.996 2.644-2.247 2.644zm8.307 0c-1.231 0-2.247-1.188-2.247-2.644 0-1.458.995-2.645 2.247-2.645 1.261 0 2.267 1.197 2.247 2.645 0 1.456-.986 2.644-2.247 2.644z" fill="#ABB2BF"/></svg>