<svg width="32" height="32" fill="none" xmlns="http://www.w3.org/2000/svg"><path d="M16 16c0-.884.369-1.732 1.025-2.357a3.59 3.59 0 012.475-.976 3.59 3.59 0 012.475.976A3.255 3.255 0 0123 16c0 .884-.369 1.732-1.025 2.357a3.59 3.59 0 01-2.475.976 3.59 3.59 0 01-2.475-.976A3.255 3.255 0 0116 16zm-7 6.667c0-.884.369-1.732 1.025-2.357a3.59 3.59 0 012.475-.977H16v3.334c0 .884-.369 1.732-1.025 2.357A3.59 3.59 0 0112.5 26a3.59 3.59 0 01-2.475-.976A3.255 3.255 0 019 22.667zM16 6v6.667h3.5a3.59 3.59 0 002.475-.977A3.255 3.255 0 0023 9.333c0-.884-.369-1.732-1.025-2.357A3.59 3.59 0 0019.5 6H16zM9 9.333c0 .884.369 1.732 1.025 2.357a3.59 3.59 0 002.475.977H16V6h-3.5a3.59 3.59 0 00-2.475.976A3.255 3.255 0 009 9.333zM9 16c0 .884.369 1.732 1.025 2.357a3.59 3.59 0 002.475.976H16v-6.666h-3.5a3.59 3.59 0 00-2.475.976A3.255 3.255 0 009 16z" fill="#ABB2BF"/></svg>