<svg width="32" height="32" fill="none" xmlns="http://www.w3.org/2000/svg"><path d="M15.5 6C9.699 6 5 10.588 5 16.253c0 4.537 3.006 8.369 7.18 9.727.524.09.721-.218.721-.487 0-.243-.013-1.05-.013-1.91-2.638.475-3.32-.627-3.53-1.204-.119-.295-.63-1.205-1.077-1.448-.367-.192-.892-.667-.013-.68.827-.012 1.418.744 1.614 1.051.946 1.551 2.455 1.116 3.059.846.091-.666.367-1.115.669-1.371-2.336-.256-4.777-1.14-4.777-5.062 0-1.115.406-2.038 1.076-2.756-.105-.256-.473-1.307.105-2.717 0 0 .88-.269 2.887 1.051a9.964 9.964 0 012.625-.346c.893 0 1.785.115 2.625.346 2.008-1.333 2.888-1.05 2.888-1.05.577 1.409.21 2.46.105 2.716.67.718 1.076 1.628 1.076 2.756 0 3.934-2.454 4.806-4.79 5.062.38.32.708.936.708 1.897 0 1.371-.013 2.473-.013 2.82 0 .268.197.589.722.486a10.5 10.5 0 005.179-3.74A10.105 10.105 0 0026 16.253C26 10.588 21.301 6 15.5 6z" fill="#ABB2BF"/></svg>