<svg width="72" height="21" fill="none" xmlns="http://www.w3.org/2000/svg"><path fill-rule="evenodd" clip-rule="evenodd" d="M12 2.5H8v4H0v12h8v-4h8v-12h-4zm-8 12h4v-4h4v-4H8v4H4v4z" fill="#fff"/><path d="M28.112 6.784v2.664h3.84v1.84h-3.84v2.832h4.632V16h-7.256V4.912h7.248l-.264 1.872h-4.36zm11.034-2.656v9.2c0 .341.096.587.288.736.197.144.466.216.808.216.218 0 .43-.024.632-.072.202-.053.392-.115.568-.184l.608 1.688a5.39 5.39 0 01-1.04.392 5.343 5.343 0 01-1.416.168c-1.024 0-1.776-.293-2.256-.88-.48-.592-.72-1.384-.72-2.376v-7.16h-2.504V4.128h5.032zm10.353 3.376v6.768h2.16V16h-7.096v-1.728h2.408v-5.04h-2.327V7.504h4.855zm-1.528-4.448c.438 0 .795.136 1.073.408.277.272.416.61.416 1.016 0 .405-.14.747-.416 1.024-.278.272-.635.408-1.072.408-.443 0-.806-.136-1.089-.408a1.392 1.392 0 01-.416-1.024c0-.405.14-.744.416-1.016.283-.272.646-.408 1.088-.408zm13.082 10.496c0 .32.043.552.128.696a.84.84 0 00.432.328l-.52 1.664c-.501-.048-.925-.157-1.272-.328a1.926 1.926 0 01-.808-.792c-.325.39-.741.68-1.248.872a4.456 4.456 0 01-1.552.28c-.874 0-1.573-.248-2.096-.744-.517-.501-.776-1.144-.776-1.928 0-.923.36-1.635 1.08-2.136.726-.501 1.744-.752 3.056-.752h1.144v-.32c0-.443-.144-.77-.432-.984-.282-.213-.698-.32-1.248-.32-.272 0-.621.04-1.048.12a8.674 8.674 0 00-1.28.328l-.584-1.68a9.661 9.661 0 011.712-.472 9.206 9.206 0 011.6-.16c1.264 0 2.198.259 2.8.776.608.512.912 1.253.912 2.224v3.328zm-3.968.912c.272 0 .558-.08.856-.24.299-.165.526-.397.68-.696v-1.376h-.624c-.704 0-1.221.11-1.552.328-.33.213-.496.528-.496.944 0 .325.099.581.296.768.203.181.483.272.84.272zm9.818 0c.421 0 .76-.067 1.016-.2.261-.133.392-.333.392-.6a.692.692 0 00-.152-.456c-.101-.123-.296-.24-.584-.352a13.953 13.953 0 00-1.28-.4 6.493 6.493 0 01-1.376-.528 2.54 2.54 0 01-.928-.824c-.219-.336-.328-.755-.328-1.256 0-.507.141-.957.424-1.352.283-.395.699-.704 1.248-.928.55-.23 1.221-.344 2.016-.344.757 0 1.416.099 1.976.296a5.454 5.454 0 011.464.736l-1.008 1.488a4.992 4.992 0 00-1.136-.52 3.895 3.895 0 00-1.224-.2c-.41 0-.717.056-.92.168a.521.521 0 00-.296.488c0 .144.05.27.152.376.107.101.304.208.592.32.288.107.71.24 1.264.4.55.155 1.027.333 1.432.536.41.203.728.475.952.816.224.336.336.781.336 1.336 0 .619-.184 1.139-.552 1.56-.368.416-.856.728-1.464.936a6.144 6.144 0 01-2 .312c-.821 0-1.547-.117-2.176-.352a5.197 5.197 0 01-1.608-.928l1.272-1.424c.33.256.704.47 1.12.64.421.17.88.256 1.376.256z" fill="#fff"/></svg>