<svg width="178" height="170" fill="none" xmlns="http://www.w3.org/2000/svg"><circle cx="2" cy="2" r="2" fill="#ABB2BF"/><circle cx="22" cy="2" r="2" fill="#ABB2BF"/><circle cx="42" cy="2" r="2" fill="#ABB2BF"/><circle cx="62" cy="2" r="2" fill="#ABB2BF"/><circle cx="2" cy="22" r="2" fill="#ABB2BF"/><circle cx="22" cy="22" r="2" fill="#ABB2BF"/><circle cx="42" cy="22" r="2" fill="#ABB2BF"/><circle cx="62" cy="22" r="2" fill="#ABB2BF"/><circle cx="2" cy="42" r="2" fill="#ABB2BF"/><circle cx="22" cy="42" r="2" fill="#ABB2BF"/><circle cx="42" cy="42" r="2" fill="#ABB2BF"/><circle cx="62" cy="42" r="2" fill="#ABB2BF"/><circle cx="2" cy="62" r="2" fill="#ABB2BF"/><circle cx="22" cy="62" r="2" fill="#ABB2BF"/><circle cx="42" cy="62" r="2" fill="#ABB2BF"/><circle cx="62" cy="62" r="2" fill="#ABB2BF"/><mask id="a" fill="#fff"><path fill-rule="evenodd" clip-rule="evenodd" d="M121.5 56H178v84.75h-56.5V112.5h28.25V84.25H121.5V56z"/></mask><path d="M121.5 56v-1h-1v1h1zm56.5 0h1v-1h-1v1zm0 84.75v1h1v-1h-1zm-56.5 0h-1v1h1v-1zm0-28.25v-1h-1v1h1zm28.25 0v1h1v-1h-1zm0-28.25h1v-1h-1v1zm-28.25 0h-1v1h1v-1zM149.75 55H121.5v2h28.25v-2zM178 55h-28.25v2H178v-2zm1 29.25V56h-2v28.25h2zm0 28.25V84.25h-2v28.25h2zm0 28.25V112.5h-2v28.25h2zm-29.25 1H178v-2h-28.25v2zm0-2H121.5v2h28.25v-2zm-27.25 1V112.5h-2v28.25h2zm-1-27.25h28.25v-2H121.5v2zm27.25-29.25v28.25h2V84.25h-2zm-27.25 1h28.25v-2H121.5v2zm-1-29.25v28.25h2V56h-2z" fill="#C778DD" mask="url(#a)"/><mask id="b" maskUnits="userSpaceOnUse" x="64" y="83.25" width="59" height="87" fill="#000"><path fill="#fff" d="M64 83.25h59v87H64z"/><path fill-rule="evenodd" clip-rule="evenodd" d="M65 84.25h56.5v28.25H93.25v28.25h28.25V169H65V84.25z"/></mask><path d="M65 84.25v-1h-1v1h1zm56.5 0h1v-1h-1v1zm0 28.25v1h1v-1h-1zm-28.25 0v-1h-1v1h1zm0 28.25h-1v1h1v-1zm28.25 0h1v-1h-1v1zm0 28.25v1h1v-1h-1zM65 169h-1v1h1v-1zm28.25-85.75H65v2h28.25v-2zm28.25 0H93.25v2h28.25v-2zm1 29.25V84.25h-2v28.25h2zm-29.25 1h28.25v-2H93.25v2zm1 27.25V112.5h-2v28.25h2zm-1 1h28.25v-2H93.25v2zm27.25-1V169h2v-28.25h-2zm1 27.25H93.25v2h28.25v-2zM65 170h28.25v-2H65v2zm-1-29.25V169h2v-28.25h-2zm0-28.25v28.25h2V112.5h-2zm0-28.25v28.25h2V84.25h-2z" fill="#C778DD" mask="url(#b)"/></svg>