<svg width="349" height="283" fill="none" xmlns="http://www.w3.org/2000/svg"><circle cx="2" cy="40" r="2" fill="#ABB2BF"/><circle cx="16.75" cy="40" r="2" fill="#ABB2BF"/><circle cx="31.5" cy="40" r="2" fill="#ABB2BF"/><circle cx="46.25" cy="40" r="2" fill="#ABB2BF"/><circle cx="61" cy="40" r="2" fill="#ABB2BF"/><circle cx="2" cy="54.75" r="2" fill="#ABB2BF"/><circle cx="16.75" cy="54.75" r="2" fill="#ABB2BF"/><circle cx="31.5" cy="54.75" r="2" fill="#ABB2BF"/><circle cx="46.25" cy="54.75" r="2" fill="#ABB2BF"/><circle cx="61" cy="54.75" r="2" fill="#ABB2BF"/><circle cx="2" cy="69.5" r="2" fill="#ABB2BF"/><circle cx="16.75" cy="69.5" r="2" fill="#ABB2BF"/><circle cx="31.5" cy="69.5" r="2" fill="#ABB2BF"/><circle cx="46.25" cy="69.5" r="2" fill="#ABB2BF"/><circle cx="61" cy="69.5" r="2" fill="#ABB2BF"/><circle cx="2" cy="84.25" r="2" fill="#ABB2BF"/><circle cx="16.75" cy="84.25" r="2" fill="#ABB2BF"/><circle cx="31.5" cy="84.25" r="2" fill="#ABB2BF"/><circle cx="46.25" cy="84.25" r="2" fill="#ABB2BF"/><circle cx="61" cy="84.25" r="2" fill="#ABB2BF"/><circle cx="2" cy="99" r="2" fill="#ABB2BF"/><circle cx="16.75" cy="99" r="2" fill="#ABB2BF"/><circle cx="31.5" cy="99" r="2" fill="#ABB2BF"/><circle cx="46.25" cy="99" r="2" fill="#ABB2BF"/><circle cx="61" cy="99" r="2" fill="#ABB2BF"/><circle cx="179" cy="145" r="2" fill="#ABB2BF"/><circle cx="193.75" cy="145" r="2" fill="#ABB2BF"/><circle cx="208.5" cy="145" r="2" fill="#ABB2BF"/><circle cx="223.25" cy="145" r="2" fill="#ABB2BF"/><circle cx="238" cy="145" r="2" fill="#ABB2BF"/><circle cx="179" cy="159.75" r="2" fill="#ABB2BF"/><circle cx="193.75" cy="159.75" r="2" fill="#ABB2BF"/><circle cx="208.5" cy="159.75" r="2" fill="#ABB2BF"/><circle cx="223.25" cy="159.75" r="2" fill="#ABB2BF"/><circle cx="238" cy="159.75" r="2" fill="#ABB2BF"/><circle cx="179" cy="174.5" r="2" fill="#ABB2BF"/><circle cx="193.75" cy="174.5" r="2" fill="#ABB2BF"/><circle cx="208.5" cy="174.5" r="2" fill="#ABB2BF"/><circle cx="223.25" cy="174.5" r="2" fill="#ABB2BF"/><circle cx="238" cy="174.5" r="2" fill="#ABB2BF"/><circle cx="179" cy="189.25" r="2" fill="#ABB2BF"/><circle cx="193.75" cy="189.25" r="2" fill="#ABB2BF"/><circle cx="208.5" cy="189.25" r="2" fill="#ABB2BF"/><circle cx="223.25" cy="189.25" r="2" fill="#ABB2BF"/><circle cx="238" cy="189.25" r="2" fill="#ABB2BF"/><circle cx="179" cy="204" r="2" fill="#ABB2BF"/><circle cx="193.75" cy="204" r="2" fill="#ABB2BF"/><circle cx="208.5" cy="204" r="2" fill="#ABB2BF"/><circle cx="223.25" cy="204" r="2" fill="#ABB2BF"/><circle cx="238" cy="204" r="2" fill="#ABB2BF"/><path stroke="#ABB2BF" d="M297.5 193.5h51v51h-51zm-70-193h85v85h-85z"/><mask id="a" fill="#fff"><path fill-rule="evenodd" clip-rule="evenodd" d="M71.5 169H128v84.75H71.5V225.5h28.25v-28.25H71.5V169z"/></mask><path d="M71.5 169v-1h-1v1h1zm56.5 0h1v-1h-1v1zm0 84.75v1h1v-1h-1zm-56.5 0h-1v1h1v-1zm0-28.25v-1h-1v1h1zm28.25 0v1h1v-1h-1zm0-28.25h1v-1h-1v1zm-28.25 0h-1v1h1v-1zM99.75 168H71.5v2h28.25v-2zm28.25 0H99.75v2H128v-2zm1 29.25V169h-2v28.25h2zm0 28.25v-28.25h-2v28.25h2zm0 28.25V225.5h-2v28.25h2zm-29.25 1H128v-2H99.75v2zm0-2H71.5v2h28.25v-2zm-27.25 1V225.5h-2v28.25h2zm-1-27.25h28.25v-2H71.5v2zm27.25-29.25v28.25h2v-28.25h-2zm-27.25 1h28.25v-2H71.5v2zm-1-29.25v28.25h2V169h-2z" fill="#C778DD" mask="url(#a)"/><mask id="b" maskUnits="userSpaceOnUse" x="14" y="196.25" width="59" height="87" fill="#000"><path fill="#fff" d="M14 196.25h59v87H14z"/><path fill-rule="evenodd" clip-rule="evenodd" d="M15 197.25h56.5v28.25H43.25v28.25H71.5V282H15v-84.75z"/></mask><path d="M15 197.25v-1h-1v1h1zm56.5 0h1v-1h-1v1zm0 28.25v1h1v-1h-1zm-28.25 0v-1h-1v1h1zm0 28.25h-1v1h1v-1zm28.25 0h1v-1h-1v1zm0 28.25v1h1v-1h-1zM15 282h-1v1h1v-1zm28.25-85.75H15v2h28.25v-2zm28.25 0H43.25v2H71.5v-2zm1 29.25v-28.25h-2v28.25h2zm-29.25 1H71.5v-2H43.25v2zm1 27.25V225.5h-2v28.25h2zm-1 1H71.5v-2H43.25v2zm27.25-1V282h2v-28.25h-2zm1 27.25H43.25v2H71.5v-2zM15 283h28.25v-2H15v2zm-1-29.25V282h2v-28.25h-2zm0-28.25v28.25h2V225.5h-2zm0-28.25v28.25h2v-28.25h-2z" fill="#C778DD" mask="url(#b)"/></svg>